# xmcd CD database file
#
# Track frame offsets:
#	183
#	42608
#	69908
#	98635
#	131335
#	138665
#	165803
#	193538
#
# Disc length: 2639 seconds
#
# Revision: 1
# Processed by: cddbd v1.4PL0 Copyright (c) Steve Scherf et al.
# Submitted via: CDex 1.51
#
DISCID=640a4d08
DTITLE=Lydia Domancich - Memoires
DYEAR=1992
DGENRE=Jazz
TTITLE0=Cellules
TTITLE1=Power Block
TTITLE2=Coeur
TTITLE3=Au fil du temps
TTITLE4=Mandeng memory
TTITLE5=Memoires
TTITLE6=Ether
TTITLE7=Circonvolution
EXTD=YEAR: 1992
EXTT0=
EXTT1=
EXTT2=
EXTT3=
EXTT4=
EXTT5=
EXTT6=
EXTT7=
PLAYORDER=
